<mxfile host="Electron" agent="Mozilla/5.0 (Macintosh; Intel Mac OS X 10_15_7) AppleWebKit/537.36 (KHTML, like Gecko) draw.io/28.0.6 Chrome/138.0.7204.100 Electron/37.2.3 Safari/537.36" version="28.0.6">
  <diagram name="Page-1" id="V62jBnsrvGLWczg-tgVz">
    <mxGraphModel dx="3378" dy="1460" grid="1" gridSize="10" guides="1" tooltips="1" connect="1" arrows="1" fold="1" page="1" pageScale="1" pageWidth="1169" pageHeight="827" math="0" shadow="0">
      <root>
        <mxCell id="0" />
        <mxCell id="1" parent="0" />
        <mxCell id="BIIbTsCtp7gyh1SSFa5Y-27" value="Bronze Layer" style="rounded=0;whiteSpace=wrap;html=1;fillColor=#EFE5DC;strokeColor=none;fontSize=20;fontStyle=1;verticalAlign=top;spacingTop=15;" parent="1" vertex="1">
          <mxGeometry x="10" y="40" width="370" height="740" as="geometry" />
        </mxCell>
        <mxCell id="BIIbTsCtp7gyh1SSFa5Y-28" value="Silver Layer" style="rounded=0;whiteSpace=wrap;html=1;fillColor=#F1F4F7;strokeColor=none;fontColor=#333333;fontSize=20;fontStyle=1;verticalAlign=top;spacingTop=15;" parent="1" vertex="1">
          <mxGeometry x="380" y="40" width="390" height="740" as="geometry" />
        </mxCell>
        <mxCell id="BIIbTsCtp7gyh1SSFa5Y-29" value="Gold Layer" style="rounded=0;whiteSpace=wrap;html=1;fillColor=#FFE5BC;strokeColor=none;fontSize=20;fontStyle=1;verticalAlign=top;spacingTop=15;" parent="1" vertex="1">
          <mxGeometry x="770" y="39" width="310" height="740" as="geometry" />
        </mxCell>
        <mxCell id="BIIbTsCtp7gyh1SSFa5Y-37" value="" style="endArrow=classic;html=1;rounded=1;exitX=1;exitY=0.5;exitDx=0;exitDy=0;entryX=0;entryY=0.5;entryDx=0;entryDy=0;strokeWidth=2;curved=0;" parent="1" target="BIIbTsCtp7gyh1SSFa5Y-35" edge="1">
          <mxGeometry width="50" height="50" relative="1" as="geometry">
            <mxPoint x="280.00000000000045" y="364" as="sourcePoint" />
            <mxPoint x="425" y="255" as="targetPoint" />
            <Array as="points">
              <mxPoint x="310" y="365" />
              <mxPoint x="310" y="514" />
            </Array>
          </mxGeometry>
        </mxCell>
        <mxCell id="BIIbTsCtp7gyh1SSFa5Y-38" value="" style="endArrow=classic;html=1;rounded=1;exitX=1;exitY=0.5;exitDx=0;exitDy=0;entryX=0;entryY=0.5;entryDx=0;entryDy=0;strokeWidth=2;curved=0;" parent="1" target="BIIbTsCtp7gyh1SSFa5Y-35" edge="1">
          <mxGeometry width="50" height="50" relative="1" as="geometry">
            <mxPoint x="280.00000000000045" y="514.0000000000002" as="sourcePoint" />
            <mxPoint x="465" y="685" as="targetPoint" />
            <Array as="points" />
          </mxGeometry>
        </mxCell>
        <mxCell id="BIIbTsCtp7gyh1SSFa5Y-39" value="" style="endArrow=classic;html=1;rounded=1;exitX=1;exitY=0.5;exitDx=0;exitDy=0;entryX=0;entryY=0.5;entryDx=0;entryDy=0;strokeWidth=2;curved=0;" parent="1" target="BIIbTsCtp7gyh1SSFa5Y-35" edge="1">
          <mxGeometry width="50" height="50" relative="1" as="geometry">
            <mxPoint x="280.00000000000045" y="664.0000000000002" as="sourcePoint" />
            <mxPoint x="425" y="665" as="targetPoint" />
            <Array as="points">
              <mxPoint x="310" y="664" />
              <mxPoint x="310" y="514" />
            </Array>
          </mxGeometry>
        </mxCell>
        <mxCell id="rx-nBWL8ogXluUVW17c--1" value="Data Sources" style="rounded=0;whiteSpace=wrap;html=1;fillColor=#DFF8FE;strokeColor=none;fontSize=20;fontStyle=1;verticalAlign=top;spacingTop=15;" vertex="1" parent="1">
          <mxGeometry x="-280" y="40" width="290" height="740" as="geometry" />
        </mxCell>
        <mxCell id="rx-nBWL8ogXluUVW17c--2" value="Decision Enablement" style="rounded=0;whiteSpace=wrap;html=1;fillColor=#FFD490;strokeColor=none;fontSize=20;fontStyle=1;verticalAlign=top;spacingTop=15;" vertex="1" parent="1">
          <mxGeometry x="1080" y="39" width="360" height="740" as="geometry" />
        </mxCell>
        <mxCell id="BIIbTsCtp7gyh1SSFa5Y-26" value="Wikimedia Pageviews" style="rounded=1;whiteSpace=wrap;html=1;fontSize=15;fillColor=#B1EEFD;" parent="1" vertex="1">
          <mxGeometry x="-260" y="274" width="110" height="86" as="geometry" />
        </mxCell>
        <mxCell id="BIIbTsCtp7gyh1SSFa5Y-36" value="" style="endArrow=classic;html=1;rounded=1;exitX=1;exitY=0.5;exitDx=0;exitDy=0;entryX=0;entryY=0.5;entryDx=0;entryDy=0;strokeWidth=2;curved=0;" parent="1" source="BIIbTsCtp7gyh1SSFa5Y-26" target="rx-nBWL8ogXluUVW17c--5" edge="1">
          <mxGeometry width="50" height="50" relative="1" as="geometry">
            <mxPoint x="370" y="505" as="sourcePoint" />
            <mxPoint x="420" y="455" as="targetPoint" />
            <Array as="points">
              <mxPoint x="-140" y="320" />
              <mxPoint x="-140" y="410" />
            </Array>
          </mxGeometry>
        </mxCell>
        <mxCell id="rx-nBWL8ogXluUVW17c--3" value="Synthetic User Behavior" style="rounded=1;whiteSpace=wrap;html=1;fontSize=15;fillColor=#B1EEFD;" vertex="1" parent="1">
          <mxGeometry x="-260" y="460" width="110" height="90" as="geometry" />
        </mxCell>
        <mxCell id="rx-nBWL8ogXluUVW17c--4" value="Synthetic Subscription Data" style="rounded=1;whiteSpace=wrap;html=1;fontSize=15;fillColor=#B1EEFD;" vertex="1" parent="1">
          <mxGeometry x="-260" y="634" width="110" height="90" as="geometry" />
        </mxCell>
        <mxCell id="rx-nBWL8ogXluUVW17c--5" value="Raw Behavioral Logs" style="rounded=1;whiteSpace=wrap;html=1;fontSize=15;fillColor=#B1EEFD;" vertex="1" parent="1">
          <mxGeometry x="-110" y="365" width="110" height="90" as="geometry" />
        </mxCell>
        <mxCell id="rx-nBWL8ogXluUVW17c--7" value="" style="endArrow=classic;html=1;rounded=1;exitX=1;exitY=0.5;exitDx=0;exitDy=0;entryX=0;entryY=0.5;entryDx=0;entryDy=0;strokeWidth=2;curved=0;" edge="1" parent="1" source="rx-nBWL8ogXluUVW17c--3" target="rx-nBWL8ogXluUVW17c--5">
          <mxGeometry width="50" height="50" relative="1" as="geometry">
            <mxPoint x="-180" y="287" as="sourcePoint" />
            <mxPoint x="-95" y="200" as="targetPoint" />
            <Array as="points">
              <mxPoint x="-140" y="500" />
              <mxPoint x="-140" y="410" />
            </Array>
          </mxGeometry>
        </mxCell>
        <mxCell id="rx-nBWL8ogXluUVW17c--8" value="" style="endArrow=classic;html=1;rounded=1;exitX=1;exitY=0.5;exitDx=0;exitDy=0;entryX=0;entryY=0.5;entryDx=0;entryDy=0;strokeWidth=2;curved=0;" edge="1" parent="1" source="rx-nBWL8ogXluUVW17c--4" target="rx-nBWL8ogXluUVW17c--5">
          <mxGeometry width="50" height="50" relative="1" as="geometry">
            <mxPoint x="-80" y="500" as="sourcePoint" />
            <mxPoint x="-50" y="370" as="targetPoint" />
            <Array as="points">
              <mxPoint x="-140" y="679" />
              <mxPoint x="-140" y="410" />
            </Array>
          </mxGeometry>
        </mxCell>
        <mxCell id="rx-nBWL8ogXluUVW17c--9" value="Data Integration" style="image;sketch=0;aspect=fixed;html=1;points=[];align=center;fontSize=15;image=img/lib/mscae/Databricks.svg;labelBackgroundColor=none;" vertex="1" parent="1">
          <mxGeometry x="50" y="386" width="50" height="48" as="geometry" />
        </mxCell>
        <mxCell id="rx-nBWL8ogXluUVW17c--10" value="Bronze Wikimedia Pageviews" style="rounded=1;whiteSpace=wrap;html=1;fontSize=15;fillColor=#DFCBB9;" vertex="1" parent="1">
          <mxGeometry x="20" y="660" width="110" height="90" as="geometry" />
        </mxCell>
        <mxCell id="rx-nBWL8ogXluUVW17c--11" value="" style="endArrow=classic;html=1;rounded=1;exitX=1;exitY=0.5;exitDx=0;exitDy=0;strokeWidth=2;curved=0;" edge="1" parent="1" source="rx-nBWL8ogXluUVW17c--5" target="rx-nBWL8ogXluUVW17c--9">
          <mxGeometry width="50" height="50" relative="1" as="geometry">
            <mxPoint x="50" y="615" as="sourcePoint" />
            <mxPoint x="90" y="520" as="targetPoint" />
            <Array as="points" />
          </mxGeometry>
        </mxCell>
        <mxCell id="rx-nBWL8ogXluUVW17c--12" value="" style="endArrow=classic;html=1;rounded=1;strokeWidth=2;curved=0;" edge="1" parent="1" source="rx-nBWL8ogXluUVW17c--9" target="rx-nBWL8ogXluUVW17c--10">
          <mxGeometry width="50" height="50" relative="1" as="geometry">
            <mxPoint x="150" y="460" as="sourcePoint" />
            <mxPoint x="200" y="460" as="targetPoint" />
            <Array as="points" />
          </mxGeometry>
        </mxCell>
        <mxCell id="rx-nBWL8ogXluUVW17c--13" value="Bronze User Behavior" style="rounded=1;whiteSpace=wrap;html=1;fontSize=15;fillColor=#DFCBB9;" vertex="1" parent="1">
          <mxGeometry x="140" y="660" width="110" height="90" as="geometry" />
        </mxCell>
        <mxCell id="rx-nBWL8ogXluUVW17c--14" value="Bronze Subscription Data" style="rounded=1;whiteSpace=wrap;html=1;fontSize=15;fillColor=#DFCBB9;" vertex="1" parent="1">
          <mxGeometry x="260" y="660" width="110" height="90" as="geometry" />
        </mxCell>
        <mxCell id="rx-nBWL8ogXluUVW17c--15" value="" style="endArrow=classic;html=1;rounded=1;strokeWidth=2;curved=0;entryX=0.5;entryY=0;entryDx=0;entryDy=0;" edge="1" parent="1" source="rx-nBWL8ogXluUVW17c--9" target="rx-nBWL8ogXluUVW17c--13">
          <mxGeometry width="50" height="50" relative="1" as="geometry">
            <mxPoint x="130" y="500" as="sourcePoint" />
            <mxPoint x="130" y="726" as="targetPoint" />
            <Array as="points">
              <mxPoint x="75" y="610" />
              <mxPoint x="195" y="610" />
            </Array>
          </mxGeometry>
        </mxCell>
        <mxCell id="rx-nBWL8ogXluUVW17c--16" value="" style="endArrow=classic;html=1;rounded=1;strokeWidth=2;curved=0;entryX=0.5;entryY=0;entryDx=0;entryDy=0;" edge="1" parent="1" source="rx-nBWL8ogXluUVW17c--9" target="rx-nBWL8ogXluUVW17c--14">
          <mxGeometry width="50" height="50" relative="1" as="geometry">
            <mxPoint x="190" y="540" as="sourcePoint" />
            <mxPoint x="310" y="766" as="targetPoint" />
            <Array as="points">
              <mxPoint x="75" y="610" />
              <mxPoint x="315" y="610" />
            </Array>
          </mxGeometry>
        </mxCell>
        <mxCell id="rx-nBWL8ogXluUVW17c--17" value="Data Quality Validation" style="image;sketch=0;aspect=fixed;html=1;points=[];align=center;fontSize=15;image=img/lib/mscae/Databricks.svg;labelBackgroundColor=none;" vertex="1" parent="1">
          <mxGeometry x="147" y="293" width="50" height="48" as="geometry" />
        </mxCell>
        <mxCell id="rx-nBWL8ogXluUVW17c--18" value="&lt;div&gt;Insights &amp;amp; Reporting Layer&lt;/div&gt;" style="rounded=1;whiteSpace=wrap;html=1;fontSize=15;align=right;spacingRight=10;verticalAlign=bottom;" vertex="1" parent="1">
          <mxGeometry x="233" y="137.75" width="137" height="94.25" as="geometry" />
        </mxCell>
        <mxCell id="rx-nBWL8ogXluUVW17c--19" value="" style="sketch=0;outlineConnect=0;fontColor=#232F3E;gradientColor=none;fillColor=#232F3D;strokeColor=none;dashed=0;verticalLabelPosition=bottom;verticalAlign=top;align=center;html=1;fontSize=12;fontStyle=0;aspect=fixed;pointerEvents=1;shape=mxgraph.aws4.opensearch_dashboards;" vertex="1" parent="1">
          <mxGeometry x="243.49" y="146" width="57.51" height="43.5" as="geometry" />
        </mxCell>
        <mxCell id="rx-nBWL8ogXluUVW17c--20" value="" style="endArrow=classic;html=1;rounded=1;strokeWidth=1;curved=0;exitX=0.25;exitY=0;exitDx=0;exitDy=0;dashed=1;" edge="1" parent="1" source="rx-nBWL8ogXluUVW17c--10" target="rx-nBWL8ogXluUVW17c--17">
          <mxGeometry width="50" height="50" relative="1" as="geometry">
            <mxPoint x="160" y="500" as="sourcePoint" />
            <mxPoint x="160" y="726" as="targetPoint" />
            <Array as="points">
              <mxPoint x="48" y="590" />
              <mxPoint x="172" y="590" />
            </Array>
          </mxGeometry>
        </mxCell>
        <mxCell id="rx-nBWL8ogXluUVW17c--21" value="" style="endArrow=classic;html=1;rounded=1;strokeWidth=1;curved=0;dashed=1;entryX=0;entryY=0.5;entryDx=0;entryDy=0;" edge="1" parent="1" source="rx-nBWL8ogXluUVW17c--17" target="rx-nBWL8ogXluUVW17c--18">
          <mxGeometry width="50" height="50" relative="1" as="geometry">
            <mxPoint x="190" y="796" as="sourcePoint" />
            <mxPoint x="276" y="470" as="targetPoint" />
            <Array as="points">
              <mxPoint x="172" y="185" />
            </Array>
          </mxGeometry>
        </mxCell>
        <mxCell id="rx-nBWL8ogXluUVW17c--22" value="" style="endArrow=classic;html=1;rounded=1;strokeWidth=1;curved=0;exitX=0.291;exitY=-0.031;exitDx=0;exitDy=0;dashed=1;exitPerimeter=0;" edge="1" parent="1" source="rx-nBWL8ogXluUVW17c--13" target="rx-nBWL8ogXluUVW17c--17">
          <mxGeometry width="50" height="50" relative="1" as="geometry">
            <mxPoint x="190" y="846" as="sourcePoint" />
            <mxPoint x="282" y="520" as="targetPoint" />
            <Array as="points" />
          </mxGeometry>
        </mxCell>
        <mxCell id="rx-nBWL8ogXluUVW17c--23" value="" style="endArrow=classic;html=1;rounded=1;strokeWidth=1;curved=0;exitX=0.25;exitY=0;exitDx=0;exitDy=0;dashed=1;" edge="1" parent="1" source="rx-nBWL8ogXluUVW17c--14" target="rx-nBWL8ogXluUVW17c--17">
          <mxGeometry width="50" height="50" relative="1" as="geometry">
            <mxPoint x="270" y="766" as="sourcePoint" />
            <mxPoint x="270" y="450" as="targetPoint" />
            <Array as="points">
              <mxPoint x="288" y="590" />
              <mxPoint x="172" y="590" />
            </Array>
          </mxGeometry>
        </mxCell>
        <mxCell id="rx-nBWL8ogXluUVW17c--24" value="Feature Engineering" style="image;sketch=0;aspect=fixed;html=1;points=[];align=center;fontSize=15;image=img/lib/mscae/Databricks.svg;labelBackgroundColor=none;" vertex="1" parent="1">
          <mxGeometry x="440" y="385" width="50" height="48" as="geometry" />
        </mxCell>
        <mxCell id="rx-nBWL8ogXluUVW17c--25" value="Engagement KPIs" style="rounded=1;whiteSpace=wrap;html=1;fontSize=15;fillColor=#BBC8D6;" vertex="1" parent="1">
          <mxGeometry x="410" y="660" width="110" height="90" as="geometry" />
        </mxCell>
        <mxCell id="rx-nBWL8ogXluUVW17c--26" value="Behavioral Patterns" style="rounded=1;whiteSpace=wrap;html=1;fontSize=15;fillColor=#BBC8D6;" vertex="1" parent="1">
          <mxGeometry x="530" y="660" width="110" height="90" as="geometry" />
        </mxCell>
        <mxCell id="rx-nBWL8ogXluUVW17c--27" value="Subscription Features" style="rounded=1;whiteSpace=wrap;html=1;fontSize=15;fillColor=#BBC8D6;" vertex="1" parent="1">
          <mxGeometry x="650" y="660" width="110" height="90" as="geometry" />
        </mxCell>
        <mxCell id="rx-nBWL8ogXluUVW17c--28" value="" style="endArrow=classic;html=1;rounded=1;strokeWidth=2;curved=0;exitX=0.75;exitY=0;exitDx=0;exitDy=0;" edge="1" parent="1" source="rx-nBWL8ogXluUVW17c--10" target="rx-nBWL8ogXluUVW17c--24">
          <mxGeometry width="50" height="50" relative="1" as="geometry">
            <mxPoint x="70" y="630" as="sourcePoint" />
            <mxPoint x="70" y="856" as="targetPoint" />
            <Array as="points">
              <mxPoint x="103" y="640" />
              <mxPoint x="360" y="640" />
              <mxPoint x="360" y="410" />
            </Array>
          </mxGeometry>
        </mxCell>
        <mxCell id="rx-nBWL8ogXluUVW17c--29" value="" style="endArrow=classic;html=1;rounded=1;strokeWidth=2;curved=0;exitX=0.75;exitY=0;exitDx=0;exitDy=0;" edge="1" parent="1" source="rx-nBWL8ogXluUVW17c--13" target="rx-nBWL8ogXluUVW17c--24">
          <mxGeometry width="50" height="50" relative="1" as="geometry">
            <mxPoint x="350" y="771" as="sourcePoint" />
            <mxPoint x="687" y="520" as="targetPoint" />
            <Array as="points">
              <mxPoint x="223" y="640" />
              <mxPoint x="360" y="640" />
              <mxPoint x="360" y="410" />
            </Array>
          </mxGeometry>
        </mxCell>
        <mxCell id="rx-nBWL8ogXluUVW17c--30" value="" style="endArrow=classic;html=1;rounded=1;strokeWidth=2;curved=0;exitX=0.75;exitY=0;exitDx=0;exitDy=0;" edge="1" parent="1" source="rx-nBWL8ogXluUVW17c--14" target="rx-nBWL8ogXluUVW17c--24">
          <mxGeometry width="50" height="50" relative="1" as="geometry">
            <mxPoint x="363" y="881" as="sourcePoint" />
            <mxPoint x="580" y="630" as="targetPoint" />
            <Array as="points">
              <mxPoint x="343" y="640" />
              <mxPoint x="360" y="640" />
              <mxPoint x="360" y="410" />
            </Array>
          </mxGeometry>
        </mxCell>
        <mxCell id="rx-nBWL8ogXluUVW17c--31" value="Subscription Features" style="rounded=1;whiteSpace=wrap;html=1;fontSize=15;fillColor=#BBC8D6;" vertex="1" parent="1">
          <mxGeometry x="650" y="364" width="110" height="90" as="geometry" />
        </mxCell>
        <mxCell id="rx-nBWL8ogXluUVW17c--32" value="" style="endArrow=classic;html=1;rounded=1;strokeWidth=2;curved=0;entryX=0;entryY=0.5;entryDx=0;entryDy=0;" edge="1" parent="1" source="rx-nBWL8ogXluUVW17c--24" target="rx-nBWL8ogXluUVW17c--31">
          <mxGeometry width="50" height="50" relative="1" as="geometry">
            <mxPoint x="420" y="520" as="sourcePoint" />
            <mxPoint x="660" y="746" as="targetPoint" />
            <Array as="points" />
          </mxGeometry>
        </mxCell>
        <mxCell id="rx-nBWL8ogXluUVW17c--33" value="" style="endArrow=classic;html=1;rounded=1;strokeWidth=2;curved=0;entryX=0.5;entryY=0;entryDx=0;entryDy=0;startArrow=classic;startFill=1;" edge="1" parent="1" source="rx-nBWL8ogXluUVW17c--24" target="rx-nBWL8ogXluUVW17c--25">
          <mxGeometry width="50" height="50" relative="1" as="geometry">
            <mxPoint x="600" y="460" as="sourcePoint" />
            <mxPoint x="740" y="460" as="targetPoint" />
            <Array as="points" />
          </mxGeometry>
        </mxCell>
        <mxCell id="rx-nBWL8ogXluUVW17c--34" value="" style="endArrow=classic;html=1;rounded=1;strokeWidth=2;curved=0;entryX=0.5;entryY=0;entryDx=0;entryDy=0;startArrow=classic;startFill=1;" edge="1" parent="1" source="rx-nBWL8ogXluUVW17c--24" target="rx-nBWL8ogXluUVW17c--26">
          <mxGeometry width="50" height="50" relative="1" as="geometry">
            <mxPoint x="530" y="490" as="sourcePoint" />
            <mxPoint x="530" y="717" as="targetPoint" />
            <Array as="points">
              <mxPoint x="465" y="610" />
              <mxPoint x="585" y="610" />
            </Array>
          </mxGeometry>
        </mxCell>
        <mxCell id="rx-nBWL8ogXluUVW17c--35" value="" style="endArrow=classic;html=1;rounded=1;strokeWidth=2;curved=0;entryX=0.5;entryY=0;entryDx=0;entryDy=0;startArrow=classic;startFill=1;" edge="1" parent="1" source="rx-nBWL8ogXluUVW17c--24" target="rx-nBWL8ogXluUVW17c--27">
          <mxGeometry width="50" height="50" relative="1" as="geometry">
            <mxPoint x="580" y="540" as="sourcePoint" />
            <mxPoint x="700" y="767" as="targetPoint" />
            <Array as="points">
              <mxPoint x="465" y="610" />
              <mxPoint x="705" y="610" />
            </Array>
          </mxGeometry>
        </mxCell>
        <mxCell id="rx-nBWL8ogXluUVW17c--44" value="" style="rounded=1;whiteSpace=wrap;html=1;fontSize=15;align=right;spacingRight=10;verticalAlign=bottom;arcSize=7;" vertex="1" parent="1">
          <mxGeometry x="790" y="160" width="280" height="330" as="geometry" />
        </mxCell>
        <mxCell id="rx-nBWL8ogXluUVW17c--36" value="&amp;nbsp; &amp;nbsp;Model Training" style="image;sketch=0;aspect=fixed;html=1;points=[];align=center;fontSize=15;image=img/lib/mscae/Databricks.svg;labelBackgroundColor=none;" vertex="1" parent="1">
          <mxGeometry x="820" y="386" width="50" height="48" as="geometry" />
        </mxCell>
        <mxCell id="rx-nBWL8ogXluUVW17c--37" value="" style="endArrow=classic;html=1;rounded=1;strokeWidth=2;curved=0;exitX=1;exitY=0.5;exitDx=0;exitDy=0;" edge="1" parent="1" source="rx-nBWL8ogXluUVW17c--31" target="rx-nBWL8ogXluUVW17c--36">
          <mxGeometry width="50" height="50" relative="1" as="geometry">
            <mxPoint x="590" y="400" as="sourcePoint" />
            <mxPoint x="750" y="400" as="targetPoint" />
            <Array as="points" />
          </mxGeometry>
        </mxCell>
        <mxCell id="rx-nBWL8ogXluUVW17c--38" value="Churn Risk Scores" style="rounded=1;whiteSpace=wrap;html=1;fontSize=15;fillColor=#BBC8D6;" vertex="1" parent="1">
          <mxGeometry x="790" y="660" width="110" height="90" as="geometry" />
        </mxCell>
        <mxCell id="rx-nBWL8ogXluUVW17c--40" value="Feature Importance" style="rounded=1;whiteSpace=wrap;html=1;fontSize=15;fillColor=#BBC8D6;" vertex="1" parent="1">
          <mxGeometry x="910" y="660" width="110" height="90" as="geometry" />
        </mxCell>
        <mxCell id="rx-nBWL8ogXluUVW17c--42" value="" style="endArrow=classic;html=1;rounded=1;strokeWidth=2;curved=0;entryX=0.5;entryY=0;entryDx=0;entryDy=0;" edge="1" parent="1" source="rx-nBWL8ogXluUVW17c--36" target="rx-nBWL8ogXluUVW17c--38">
          <mxGeometry width="50" height="50" relative="1" as="geometry">
            <mxPoint x="850" y="570" as="sourcePoint" />
            <mxPoint x="910" y="571" as="targetPoint" />
            <Array as="points" />
          </mxGeometry>
        </mxCell>
        <mxCell id="rx-nBWL8ogXluUVW17c--43" value="" style="endArrow=classic;html=1;rounded=1;strokeWidth=2;curved=0;entryX=0.5;entryY=0;entryDx=0;entryDy=0;" edge="1" parent="1" source="rx-nBWL8ogXluUVW17c--36" target="rx-nBWL8ogXluUVW17c--40">
          <mxGeometry width="50" height="50" relative="1" as="geometry">
            <mxPoint x="930" y="520" as="sourcePoint" />
            <mxPoint x="930" y="746" as="targetPoint" />
            <Array as="points">
              <mxPoint x="845" y="620" />
              <mxPoint x="965" y="620" />
            </Array>
          </mxGeometry>
        </mxCell>
        <mxCell id="rx-nBWL8ogXluUVW17c--45" value="Random Forest" style="rounded=1;whiteSpace=wrap;html=1;fontSize=12;fillColor=#f5f5f5;fontColor=#333333;strokeColor=#666666;" vertex="1" parent="1">
          <mxGeometry x="875" y="180" width="110" height="30" as="geometry" />
        </mxCell>
        <mxCell id="rx-nBWL8ogXluUVW17c--46" value="Gradient Boosting" style="rounded=1;whiteSpace=wrap;html=1;fontSize=12;fillColor=#f5f5f5;fontColor=#333333;strokeColor=#666666;" vertex="1" parent="1">
          <mxGeometry x="875" y="220" width="110" height="30" as="geometry" />
        </mxCell>
        <mxCell id="rx-nBWL8ogXluUVW17c--47" value="Logistic Regression" style="rounded=1;whiteSpace=wrap;html=1;fontSize=12;fillColor=#f5f5f5;fontColor=#333333;strokeColor=#666666;" vertex="1" parent="1">
          <mxGeometry x="875" y="263" width="110" height="30" as="geometry" />
        </mxCell>
        <mxCell id="rx-nBWL8ogXluUVW17c--48" value="" style="endArrow=classic;html=1;rounded=1;strokeWidth=1;curved=0;entryX=0;entryY=0.5;entryDx=0;entryDy=0;" edge="1" parent="1" source="rx-nBWL8ogXluUVW17c--36" target="rx-nBWL8ogXluUVW17c--45">
          <mxGeometry width="50" height="50" relative="1" as="geometry">
            <mxPoint x="960" y="300" as="sourcePoint" />
            <mxPoint x="1020" y="301" as="targetPoint" />
            <Array as="points">
              <mxPoint x="845" y="195" />
            </Array>
          </mxGeometry>
        </mxCell>
        <mxCell id="rx-nBWL8ogXluUVW17c--49" value="" style="endArrow=classic;html=1;rounded=1;strokeWidth=1;curved=0;entryX=0;entryY=0.5;entryDx=0;entryDy=0;" edge="1" parent="1" source="rx-nBWL8ogXluUVW17c--36" target="rx-nBWL8ogXluUVW17c--46">
          <mxGeometry width="50" height="50" relative="1" as="geometry">
            <mxPoint x="970" y="591" as="sourcePoint" />
            <mxPoint x="1000" y="400" as="targetPoint" />
            <Array as="points">
              <mxPoint x="845" y="235" />
            </Array>
          </mxGeometry>
        </mxCell>
        <mxCell id="rx-nBWL8ogXluUVW17c--50" value="" style="endArrow=classic;html=1;rounded=1;strokeWidth=1;curved=0;entryX=0;entryY=0.5;entryDx=0;entryDy=0;" edge="1" parent="1" source="rx-nBWL8ogXluUVW17c--36" target="rx-nBWL8ogXluUVW17c--47">
          <mxGeometry width="50" height="50" relative="1" as="geometry">
            <mxPoint x="860" y="531" as="sourcePoint" />
            <mxPoint x="890" y="380" as="targetPoint" />
            <Array as="points">
              <mxPoint x="845" y="280" />
            </Array>
          </mxGeometry>
        </mxCell>
        <mxCell id="rx-nBWL8ogXluUVW17c--52" value="&lt;ol&gt;&lt;li&gt;&lt;span style=&quot;background-color: transparent; color: light-dark(rgb(51, 51, 51), rgb(193, 193, 193));&quot;&gt;Model Evaluation&lt;/span&gt;&lt;/li&gt;&lt;li&gt;&lt;span style=&quot;background-color: transparent; color: light-dark(rgb(51, 51, 51), rgb(193, 193, 193));&quot;&gt;Hyperparameter Tuning&lt;/span&gt;&lt;/li&gt;&lt;li&gt;&lt;span style=&quot;background-color: transparent; color: light-dark(rgb(51, 51, 51), rgb(193, 193, 193));&quot;&gt;Best Model Selection&lt;/span&gt;&lt;/li&gt;&lt;li&gt;&lt;span style=&quot;background-color: transparent; color: light-dark(rgb(51, 51, 51), rgb(193, 193, 193));&quot;&gt;Model Deployment&lt;/span&gt;&lt;/li&gt;&lt;li&gt;&lt;span style=&quot;background-color: transparent; color: light-dark(rgb(51, 51, 51), rgb(193, 193, 193));&quot;&gt;Prediction Generation&lt;/span&gt;&lt;/li&gt;&lt;/ol&gt;" style="rounded=1;whiteSpace=wrap;html=1;fontSize=12;fillColor=#f5f5f5;fontColor=#333333;strokeColor=#666666;arcSize=8;align=left;spacing=-24;" vertex="1" parent="1">
          <mxGeometry x="910" y="350" width="150" height="90" as="geometry" />
        </mxCell>
        <mxCell id="rx-nBWL8ogXluUVW17c--53" value="" style="endArrow=classic;html=1;rounded=1;strokeWidth=1;curved=0;entryX=0.75;entryY=0;entryDx=0;entryDy=0;exitX=1;exitY=0.5;exitDx=0;exitDy=0;" edge="1" parent="1" source="rx-nBWL8ogXluUVW17c--47" target="rx-nBWL8ogXluUVW17c--52">
          <mxGeometry width="50" height="50" relative="1" as="geometry">
            <mxPoint x="850" y="378" as="sourcePoint" />
            <mxPoint x="880" y="270" as="targetPoint" />
            <Array as="points">
              <mxPoint x="1020" y="278" />
            </Array>
          </mxGeometry>
        </mxCell>
        <mxCell id="rx-nBWL8ogXluUVW17c--54" value="" style="endArrow=classic;html=1;rounded=1;strokeWidth=1;curved=0;entryX=0.75;entryY=0;entryDx=0;entryDy=0;exitX=1;exitY=0.5;exitDx=0;exitDy=0;" edge="1" parent="1" source="rx-nBWL8ogXluUVW17c--46" target="rx-nBWL8ogXluUVW17c--52">
          <mxGeometry width="50" height="50" relative="1" as="geometry">
            <mxPoint x="1000" y="250" as="sourcePoint" />
            <mxPoint x="1030" y="292" as="targetPoint" />
            <Array as="points">
              <mxPoint x="1020" y="235" />
            </Array>
          </mxGeometry>
        </mxCell>
        <mxCell id="rx-nBWL8ogXluUVW17c--55" value="" style="endArrow=classic;html=1;rounded=1;strokeWidth=1;curved=0;entryX=0.75;entryY=0;entryDx=0;entryDy=0;exitX=1;exitY=0.5;exitDx=0;exitDy=0;" edge="1" parent="1" source="rx-nBWL8ogXluUVW17c--45" target="rx-nBWL8ogXluUVW17c--52">
          <mxGeometry width="50" height="50" relative="1" as="geometry">
            <mxPoint x="1020" y="240" as="sourcePoint" />
            <mxPoint x="1050" y="325" as="targetPoint" />
            <Array as="points">
              <mxPoint x="1020" y="195" />
            </Array>
          </mxGeometry>
        </mxCell>
        <mxCell id="rx-nBWL8ogXluUVW17c--56" value="Dashboard Generation" style="image;sketch=0;aspect=fixed;html=1;points=[];align=center;fontSize=15;image=img/lib/mscae/Databricks.svg;labelBackgroundColor=none;" vertex="1" parent="1">
          <mxGeometry x="1140" y="490" width="50" height="48" as="geometry" />
        </mxCell>
        <mxCell id="rx-nBWL8ogXluUVW17c--57" value="&lt;div&gt;&lt;br&gt;&lt;/div&gt;&lt;div&gt;&lt;br&gt;&lt;/div&gt;&lt;div&gt;&lt;br&gt;&lt;/div&gt;&lt;div&gt;&lt;br&gt;&lt;/div&gt;&lt;div&gt;&lt;br&gt;&lt;/div&gt;&lt;div&gt;Executive Summary&lt;/div&gt;&lt;div&gt;&lt;br&gt;&lt;/div&gt;&lt;div&gt;Churn Funnel&lt;/div&gt;&lt;div&gt;&lt;br&gt;&lt;/div&gt;&lt;div&gt;Cohort Analysis&lt;/div&gt;&lt;div&gt;&lt;br&gt;&lt;/div&gt;&lt;div&gt;Risk Scoring Dashboard&lt;br&gt;&lt;br&gt;Geographic Insights&lt;/div&gt;" style="rounded=1;whiteSpace=wrap;html=1;fontSize=15;align=center;spacingRight=10;verticalAlign=top;fillColor=#FFBA4D;spacingTop=50;" vertex="1" parent="1">
          <mxGeometry x="1245.75" y="189.5" width="187" height="432.12" as="geometry" />
        </mxCell>
        <mxCell id="rx-nBWL8ogXluUVW17c--58" value="" style="sketch=0;outlineConnect=0;fontColor=#232F3E;gradientColor=none;fillColor=#232F3D;strokeColor=none;dashed=0;verticalLabelPosition=bottom;verticalAlign=top;align=center;html=1;fontSize=12;fontStyle=0;aspect=fixed;pointerEvents=1;shape=mxgraph.aws4.opensearch_dashboards;" vertex="1" parent="1">
          <mxGeometry x="1310.49" y="196.13" width="57.51" height="43.5" as="geometry" />
        </mxCell>
        <mxCell id="rx-nBWL8ogXluUVW17c--59" value="" style="endArrow=classic;html=1;rounded=1;strokeWidth=2;curved=0;exitX=0.75;exitY=0;exitDx=0;exitDy=0;" edge="1" parent="1" source="rx-nBWL8ogXluUVW17c--40" target="rx-nBWL8ogXluUVW17c--56">
          <mxGeometry width="50" height="50" relative="1" as="geometry">
            <mxPoint x="1290" y="640" as="sourcePoint" />
            <mxPoint x="1410" y="866" as="targetPoint" />
            <Array as="points">
              <mxPoint x="993" y="640" />
              <mxPoint x="1070" y="640" />
              <mxPoint x="1070" y="514" />
            </Array>
          </mxGeometry>
        </mxCell>
        <mxCell id="rx-nBWL8ogXluUVW17c--60" value="" style="endArrow=classic;html=1;rounded=1;strokeWidth=2;curved=0;exitX=0.75;exitY=0;exitDx=0;exitDy=0;" edge="1" parent="1" source="rx-nBWL8ogXluUVW17c--38" target="rx-nBWL8ogXluUVW17c--56">
          <mxGeometry width="50" height="50" relative="1" as="geometry">
            <mxPoint x="870" y="656" as="sourcePoint" />
            <mxPoint x="1017" y="510" as="targetPoint" />
            <Array as="points">
              <mxPoint x="873" y="640" />
              <mxPoint x="1070" y="640" />
              <mxPoint x="1070" y="514" />
            </Array>
          </mxGeometry>
        </mxCell>
        <mxCell id="rx-nBWL8ogXluUVW17c--61" value="" style="endArrow=classic;html=1;rounded=1;strokeWidth=2;curved=0;entryX=0;entryY=0.5;entryDx=0;entryDy=0;" edge="1" parent="1" source="rx-nBWL8ogXluUVW17c--56" target="rx-nBWL8ogXluUVW17c--57">
          <mxGeometry width="50" height="50" relative="1" as="geometry">
            <mxPoint x="650" y="530" as="sourcePoint" />
            <mxPoint x="810" y="530" as="targetPoint" />
            <Array as="points">
              <mxPoint x="1165" y="406" />
            </Array>
          </mxGeometry>
        </mxCell>
      </root>
    </mxGraphModel>
  </diagram>
</mxfile>
